<?xml version="1.0" encoding="UTF-8"?>
<svg id="SVGDoc" width="91" height="60" xmlns="http://www.w3.org/2000/svg" version="1.1" xmlns:xlink="http://www.w3.org/1999/xlink" xmlns:avocode="https://avocode.com/" viewBox="0 0 91 60"><defs></defs><desc>Generated with Avocode.</desc><g><g><title>Forma 1</title><path d="M88.75542,54.26562c-1.23832,2.93039 -3.15202,4.50837 -5.40347,5.18457c-2.1389,0.56368 -4.61544,0.22558 -7.20463,-0.78873c-4.39024,-1.80356 -9.45597,-5.63573 -14.40915,-10.25716c-3.48977,-3.38101 -10.01891,-5.07152 -16.54805,-5.07152c-6.52925,0 -13.05839,1.69051 -16.54816,5.07152c-4.95318,4.62143 -10.01891,8.4536 -14.40915,10.25716c-2.58919,1.12683 -5.06573,1.35241 -7.20463,0.78873c-2.36399,-0.6762 -4.16515,-2.36671 -5.40347,-5.07205c-1.23832,-2.93039 -1.80116,-7.10066 -1.57596,-12.84891c0.22509,-5.18457 1.12567,-10.93283 2.47654,-16.34298c1.23832,-5.18457 3.03948,-10.03158 5.06573,-13.7507c7.88001,-13.97627 16.4355,-11.72209 26.67961,-9.1298c3.26457,0.78926 6.75423,1.69051 10.35655,2.02861h1.12578c3.60231,-0.3381 7.09198,-1.23935 10.35655,-2.02861c10.24411,-2.70481 18.7996,-4.84647 26.67961,9.01674c2.02625,3.71965 3.71486,8.56612 5.06573,13.7507c1.35087,5.41015 2.25145,11.15841 2.47654,16.34352c0.2252,5.86078 -0.33764,10.03105 -1.57596,12.84891zM86.16623,41.64175c-0.22509,-4.959 -1.12567,-10.36915 -2.36399,-15.55372c-1.23832,-4.95953 -2.81428,-9.35538 -4.72798,-12.73639c-6.1915,-11.15841 -13.39613,-9.24232 -21.95152,-7.10119c-3.48977,0.90178 -7.09208,1.80356 -11.14469,2.14166c-0.11255,0 -1.35087,0 -1.46341,0c-0.11255,0 -0.11255,0 -0.22509,0c-3.94006,-0.3381 -7.54237,-1.23988 -11.03214,-2.14166c-8.55539,-2.25419 -15.76002,-4.05722 -21.95152,7.10119c-1.9137,3.38101 -3.48966,7.88939 -4.72798,12.73639c-1.35087,5.18457 -2.1389,10.70725 -2.36399,15.55372c-0.2252,5.18511 0.22509,8.67864 1.12567,10.82031c0.67549,1.57798 1.57607,2.47976 2.70174,2.81787c1.23832,0.45062 2.81428,0.11252 4.61544,-0.56368c3.82751,-1.46493 8.44295,-5.07205 13.05839,-9.35485c4.39035,-4.05775 11.93261,-6.19888 19.47498,-6.19888c7.54226,0 15.08464,2.14113 19.36233,6.42446c4.50289,4.28279 9.11833,7.77686 13.05828,9.35485c1.80116,0.6762 3.37722,0.90178 4.61555,0.56368c1.12567,-0.3381 2.02625,-1.23988 2.70174,-2.81787c1.01312,-2.36724 1.46341,-5.86078 1.23821,-11.04589zM36.74717,24.05889c0,1.80356 -0.67538,3.38155 -1.9137,4.62143c-1.01312,1.12683 -2.47664,1.80303 -4.0526,1.91608c-0.11255,1.57798 -0.90058,2.93039 -1.9137,4.05722c-1.12578,1.12736 -2.81428,1.91608 -4.61544,1.91608c-1.80116,0 -3.37722,-0.6762 -4.61544,-1.91608c-1.12578,-1.0143 -1.80116,-2.47923 -1.91381,-4.05722c-1.6885,-0.11306 -3.03937,-0.78926 -4.16515,-1.91608c-1.12567,-1.12736 -1.9137,-2.81787 -1.9137,-4.62143c0,-1.80303 0.67549,-3.38101 1.9137,-4.6209l0.11265,-0.11306c1.12567,-1.0143 2.47654,-1.69051 4.0525,-1.80303c0.11265,-1.57798 0.90058,-3.04344 1.91381,-4.05775c1.12567,-1.12683 2.81428,-1.91608 4.61544,-1.91608c1.80116,0 3.37712,0.6762 4.61544,1.91608l0.11255,0.11252c1.01312,1.01484 1.68861,2.47976 1.80116,3.94523c1.57596,0.11252 2.92683,0.90178 4.0526,1.91608c1.12567,1.12683 1.9137,2.81787 1.9137,4.6209zM32.69457,24.05889c0,-0.6762 -0.22509,-1.23988 -0.67538,-1.69051c-0.45029,-0.45062 -1.01312,-0.6762 -1.68861,-0.6762h-1.57596c-1.23832,0 -2.1389,-1.0143 -2.1389,-2.14166v-1.57798c0,-0.56368 -0.2252,-1.12683 -0.56283,-1.57798c-0.11265,-0.11252 -0.11265,-0.11252 -0.11265,-0.11252c-0.45029,-0.45116 -1.01312,-0.6762 -1.6885,-0.6762c-0.67549,0 -1.23832,0.22505 -1.68861,0.6762c-0.45029,0.45062 -0.67538,1.0143 -0.67538,1.69051v1.57798c0,1.23988 -1.01323,2.14166 -2.1389,2.14166h-1.57607c-0.56283,0 -1.12567,0.22558 -1.57596,0.56368c-0.11255,0.11252 -0.11255,0.11252 -0.11255,0.11252c-0.45029,0.45062 -0.67549,1.0143 -0.67549,1.69051c0,0.6762 0.33774,1.23988 0.67549,1.57798c0.45029,0.45116 1.01312,0.6762 1.6885,0.6762h1.57607c1.23832,0 2.1389,1.0143 2.1389,2.14166v1.57798c0,0.6762 0.22509,1.23988 0.67538,1.69051c0.45029,0.45116 1.01312,0.6762 1.68861,0.6762c0.67538,0 1.23821,-0.22505 1.6885,-0.6762c0.45029,-0.45062 0.67549,-1.0143 0.67549,-1.69051v-1.46546c0,-1.23988 1.01312,-2.14113 2.1389,-2.14113h1.57596c0.67549,0 1.23832,-0.22558 1.68861,-0.6762c0.45029,-0.45116 0.67538,-1.01484 0.67538,-1.69104zM64.77755,12.11175c2.17602,0 3.94006,1.76623 3.94006,3.94469c0,2.17899 -1.76404,3.94523 -3.94006,3.94523c-2.17602,0 -3.93995,-1.76623 -3.93995,-3.94523c0,-2.17846 1.76393,-3.94469 3.93995,-3.94469zM64.77755,28.11664c2.17602,0 3.94006,1.76623 3.94006,3.94469c0,2.17899 -1.76404,3.94523 -3.94006,3.94523c-2.17602,0 -3.93995,-1.76623 -3.93995,-3.94523c0,-2.17846 1.76393,-3.94469 3.93995,-3.94469zM56.78499,20.1142c2.17602,0 3.94006,1.76623 3.94006,3.94469c0,2.17899 -1.76404,3.94523 -3.94006,3.94523c-2.17602,0 -3.94006,-1.76623 -3.94006,-3.94523c0,-2.17846 1.76404,-3.94469 3.94006,-3.94469zM72.77021,20.1142c2.17602,0 3.94006,1.76623 3.94006,3.94469c0,2.17899 -1.76404,3.94523 -3.94006,3.94523c-2.17602,0 -3.94006,-1.76623 -3.94006,-3.94523c0,-2.17846 1.76404,-3.94469 3.94006,-3.94469z" fill="#000000" fill-opacity="1"></path></g></g></svg>