<?xml version="1.0" encoding="UTF-8"?>
<svg id="SVGDoc" width="55" height="52" xmlns="http://www.w3.org/2000/svg" version="1.1" xmlns:xlink="http://www.w3.org/1999/xlink" xmlns:avocode="https://avocode.com/" viewBox="0 0 55 52"><defs></defs><desc>Generated with Avocode.</desc><g><g><title>Shape 41</title><path d="M33.55169,20.04071v0h14.4511v0v24.08252v0h-14.4511v0z" fill="#ff0707" fill-opacity="1"></path></g><g><title>Forma 1</title><path d="M54.88083,14.27326v34.95082c0,1.0783 -0.87461,1.95235 -1.95383,1.95235h-37.77333c-1.07921,0 -1.95383,-0.87405 -1.95383,-1.95235v-8.0707h-11.20166c-1.07921,0 -1.95383,-0.87352 -1.95383,-1.95235v-20.30687c0,-1.0783 0.87461,-1.95235 1.95383,-1.95235h11.20176v-14.57888c0,-1.0783 0.87461,-1.95235 1.95383,-1.95235h26.1157c0.5255,0 1.0289,0.21065 1.39689,0.58608l11.65774,11.9114c0.35748,0.36477 0.55683,0.85432 0.55672,1.3652zM17.1075,47.2712h33.86589v-30.58963h-9.76914c-1.07921,0 -1.95383,-0.87405 -1.95383,-1.95235v-10.41448h-22.14282v12.62707h11.07141c1.07921,0 1.95383,0.87405 1.95383,1.95235v20.30687c0,1.07883 -0.87461,1.95235 -1.95383,1.95235h-11.07152zM43.15807,12.77634l5.57102,0l-5.57102,-5.69221zM46.34937,25.14263c0,1.07883 -0.87461,1.95235 -1.95383,1.95235h-9.05256c-1.07921,0 -1.95383,-0.87405 -1.95383,-1.95235c0,-1.0783 0.87461,-1.95235 1.95383,-1.95235h9.05256c1.07921,0 1.95383,0.87405 1.95383,1.95235zM46.34937,34.58067c0,1.07776 -0.87461,1.95235 -1.95383,1.95235h-9.05256c-1.07921,0 -1.95383,-0.87458 -1.95383,-1.95235c0,-1.07883 0.87461,-1.95288 1.95383,-1.95288h9.05256c1.07921,0 1.95383,0.87405 1.95383,1.95288zM26.22529,20.8465h-22.27328l0,9.68551l4.55225,-2.65045c0.73589,-0.43036 1.66597,-0.3317 2.29704,0.24104l1.47525,1.33865l6.719,-4.6242c0.7066,-0.48582 1.64902,-0.45489 2.32108,0.07733l4.90866,3.88559zM20.85804,37.24815h5.36725v-3.46768l-6.20331,-4.90912l-4.77493,3.28537zM3.95201,37.24815h11.093l-5.81066,-5.27203l-5.28234,3.07523z" fill="#000000" fill-opacity="1"></path></g></g></svg>