<?xml version="1.0" encoding="UTF-8"?>
<svg id="SVGDoc" width="66" height="66" xmlns="http://www.w3.org/2000/svg" version="1.1" xmlns:xlink="http://www.w3.org/1999/xlink" xmlns:avocode="https://avocode.com/" viewBox="0 0 66 66"><defs><clipPath id="ClipPath1047"><path d="M3.74271,34.98735v0h28.02576v0v27.46779v0h-28.02576v0z" fill="#ffffff"></path></clipPath></defs><desc>Generated with Avocode.</desc><g><g><title>Shape 39</title><path d="M3.74271,34.98735v0h28.02576v0v27.46779v0h-28.02576v0z" fill="#8fd5e7" fill-opacity="1"></path><path d="M3.74271,34.98735v0h28.02576v0v27.46779v0h-28.02576v0z" fill-opacity="0" fill="#ffffff" stroke-linejoin="round" stroke-linecap="round" stroke-opacity="1" stroke="#ffffff" stroke-miterlimit="20" stroke-width="6" clip-path="url(&quot;#ClipPath1047&quot;)"></path></g><g><title>Forma 1</title><path d="M65.99989,10.80778c0,0.51408 -0.20374,1.00524 -0.56638,1.36787l-8.87607,8.87596l-13.31416,13.315c-0.36274,0.3621 -0.85444,0.56528 -1.36728,0.56528h-6.94252v29.13377c0,1.0671 -0.86571,1.93315 -1.93355,1.93315h-31.06642c-1.06784,0 -1.93355,-0.86605 -1.93355,-1.93315v-31.06745c0,-1.0671 0.86571,-1.93262 1.93355,-1.93262h29.13287v-6.94334c0,-0.51302 0.20374,-1.00417 0.56638,-1.3668l13.31449,-13.31447l8.87564,-8.87596c0.36263,-0.36263 0.85455,-0.56581 1.36739,-0.56581c0.51273,0 1.00454,0.20318 1.36718,0.56581l8.87607,8.87596c0.36263,0.3621 0.56638,0.85485 0.56638,1.3668zM31.06637,34.93189h-27.19932v27.20062h27.19932zM52.4557,19.68427l-6.14129,-6.14128l-11.38093,11.38079v6.14182h6.14172zM61.33188,10.80884l-6.14161,-6.14128l-6.1414,6.14128l6.1414,6.14075z" fill="#000000" fill-opacity="1"></path></g></g></svg>